<?xml version="1.0" encoding="UTF-8"?>
<svg id="Glyph" xmlns="http://www.w3.org/2000/svg" viewBox="0 0 64 64" width="24" height="24">
  <path d="M47,40v12c0,.55-.45,1-1,1h-4c-.55,0-1-.45-1-1v-12c0-.55.45-1,1-1h4c.55,0,1,.45,1,1ZM12,31h8c.55,0,1-.45,1-1v-8c0-.55-.45-1-1-1h-8c-.55,0-1,.45-1,1v8c0,.55.45,1,1,1ZM46,21h-18c-.55,0-1,.45-1,1v8c0,.55.45,1,1,1h18c.55,0,1-.45,1-1v-8c0-.55-.45-1-1-1ZM54,19v36c0,2.76-2.24,5-5,5H9c-2.76,0-5-2.24-5-5V19c0-2.76,2.24-5,5-5h40c2.76,0,5,2.24,5,5ZM9,30c0,1.65,1.35,3,3,3h8c1.65,0,3-1.35,3-3v-8c0-1.65-1.35-3-3-3h-8c-1.65,0-3,1.35-3,3v8ZM9,38c0,.55.45,1,1,1h16c.55,0,1-.45,1-1s-.45-1-1-1H10c-.55,0-1,.45-1,1ZM29,50c0-.55-.45-1-1-1H10c-.55,0-1,.45-1,1s.45,1,1,1h18c.55,0,1-.45,1-1ZM10,47h12c.55,0,1-.45,1-1s-.45-1-1-1h-12c-.55,0-1,.45-1,1s.45,1,1,1ZM36,42c0-.55-.45-1-1-1H10c-.55,0-1,.45-1,1s.45,1,1,1h25c.55,0,1-.45,1-1ZM49,40c0-1.65-1.35-3-3-3h-4c-1.65,0-3,1.35-3,3v12c0,1.65,1.35,3,3,3h4c1.65,0,3-1.35,3-3v-12ZM49,22c0-1.65-1.35-3-3-3h-18c-1.65,0-3,1.35-3,3v8c0,1.65,1.35,3,3,3h18c1.65,0,3-1.35,3-3v-8ZM55,4H15c-2.76,0-5,2.24-5,5v3h39c3.86,0,7,3.14,7,7v30.9c2.28-.46,4-2.48,4-4.9V9c0-2.76-2.24-5-5-5Z"/>
</svg>