<?xml version="1.0" standalone="no"?>
<!DOCTYPE svg PUBLIC "-//W3C//DTD SVG 20010904//EN"
 "http://www.w3.org/TR/2001/REC-SVG-20010904/DTD/svg10.dtd">
<svg version="1.0" xmlns="http://www.w3.org/2000/svg"
 width="150.000000pt" height="150.000000pt" viewBox="0 0 4500.000000 4500.000000"
 preserveAspectRatio="xMidYMid meet">

<g transform="translate(0.000000,4500.000000) scale(0.100000,-0.100000)"
fill="#000000" stroke="none">
<path d="M28870 24803 c0 -1712 -2 -1996 -15 -2043 -56 -210 -226 -382 -440
-446 -56 -17 -137 -18 -1177 -21 l-1118 -4 0 531 0 530 1035 0 1035 0 0 595 0
595 -1615 0 -1615 0 0 -1715 0 -1715 1834 0 c1216 0 1869 4 1937 11 368 37
709 186 992 433 276 242 478 594 559 973 l23 108 3 2078 2 2077 -720 0 -720 0
0 -1987z"/>
<path d="M20070 26190 l0 -590 778 -2 777 -3 3 -2252 2 -2253 725 0 725 0 0
2255 0 2255 775 0 775 0 0 590 0 590 -2280 0 -2280 0 0 -590z"/>
<path d="M24980 26190 l0 -590 1605 0 1605 0 0 590 0 590 -1605 0 -1605 0 0
-590z"/>
<path d="M11455 26759 c-661 -76 -1246 -358 -1711 -823 -147 -148 -231 -250
-343 -416 -200 -298 -342 -623 -415 -952 -174 -780 -30 -1566 406 -2218 110
-165 142 -206 134 -175 -32 124 -56 366 -56 567 0 583 183 1138 523 1588 91
120 294 329 412 425 295 239 647 401 1010 465 172 31 356 40 813 40 l422 0 0
550 c0 303 3 550 8 550 4 0 460 -247 1012 -550 553 -302 1006 -546 1007 -542
2 4 -120 342 -271 752 l-274 745 -1303 1 c-717 1 -1335 -2 -1374 -7z"/>
<path d="M17138 26633 c-29 -75 -523 -1352 -1098 -2837 l-1046 -2701 611 -3
c583 -2 613 -1 675 18 119 36 249 141 302 244 12 23 91 248 177 501 l156 460
990 2 990 3 154 -458 c84 -251 168 -484 185 -517 62 -119 191 -216 326 -245
39 -8 230 -10 656 -8 l600 3 -1097 2835 -1097 2835 -716 3 -715 2 -53 -137z
m1091 -2342 c171 -508 311 -925 311 -927 0 -2 -286 -4 -636 -4 -602 0 -636 1
-629 18 3 9 112 328 240 707 349 1029 389 1144 396 1137 4 -4 147 -423 318
-931z"/>
<path d="M32440 26638 c-28 -73 -522 -1350 -1098 -2838 l-1047 -2705 610 -3
c583 -2 613 -1 675 18 119 36 249 141 303 244 11 23 91 248 177 501 l156 460
989 2 990 3 154 -458 c85 -251 168 -484 185 -517 62 -119 191 -216 326 -245
39 -8 230 -10 656 -8 l601 3 -1098 2835 -1097 2835 -715 3 -715 2 -52 -132z
m1089 -2346 c171 -508 311 -925 311 -928 0 -2 -286 -4 -636 -4 -602 0 -636 1
-629 18 4 9 112 328 240 707 348 1025 389 1145 396 1137 4 -4 147 -422 318
-930z"/>
<path d="M10830 24862 c-579 -317 -989 -857 -1150 -1514 -57 -233 -65 -308
-65 -613 1 -332 19 -465 102 -738 l26 -87 102 -90 c321 -286 628 -464 1020
-595 170 -57 281 -83 490 -118 128 -21 149 -21 1733 -24 l1602 -4 0 780 0 780
-1507 4 c-1498 3 -1509 3 -1601 24 -277 64 -486 177 -671 363 -108 108 -179
206 -245 336 -96 191 -137 367 -138 589 0 335 125 651 351 888 40 42 70 77 65
77 -5 0 -56 -26 -114 -58z"/>
<path d="M22038 20010 c-186 -23 -323 -110 -384 -243 -25 -54 -29 -74 -29
-157 0 -84 3 -102 28 -151 60 -123 166 -184 442 -255 275 -70 362 -121 381
-222 10 -54 -12 -121 -53 -164 -138 -142 -516 -117 -712 46 -24 20 -46 36 -50
36 -4 0 -23 -34 -44 -75 l-37 -75 53 -41 c117 -94 259 -139 462 -146 220 -8
363 34 463 134 113 113 140 275 71 420 -56 116 -160 175 -444 248 -252 64
-327 102 -361 182 -32 75 -4 177 62 228 65 50 137 69 264 69 101 1 126 -3 203
-28 48 -16 112 -43 142 -61 l54 -33 30 73 c17 41 31 78 31 84 0 17 -180 98
-255 115 -91 20 -232 27 -317 16z"/>
<path d="M23598 20010 c-195 -24 -385 -129 -494 -273 -56 -74 -107 -178 -131
-267 -23 -88 -23 -281 0 -370 69 -264 286 -468 558 -525 148 -31 346 -15 481
40 206 84 372 276 424 490 26 106 24 279 -5 380 -57 204 -183 355 -375 452
-126 63 -306 92 -458 73z m256 -186 c156 -40 283 -140 350 -275 114 -232 73
-492 -104 -664 -242 -233 -664 -197 -857 72 -119 167 -135 405 -41 594 36 72
131 173 202 214 119 69 312 95 450 59z"/>
<path d="M28373 20010 c-145 -18 -300 -87 -406 -180 -97 -85 -185 -237 -212
-366 -22 -102 -19 -274 5 -368 54 -212 212 -395 415 -479 109 -45 203 -60 349
-55 144 6 240 30 343 89 59 34 153 115 153 133 0 13 -101 116 -114 116 -4 0
-29 -18 -54 -41 -130 -114 -324 -156 -506 -109 -214 54 -366 212 -411 425 -19
90 -19 128 1 223 24 117 66 196 148 278 112 112 242 164 406 164 150 0 256
-37 360 -124 l55 -45 58 57 c31 31 57 62 57 69 0 19 -116 108 -186 143 -124
61 -307 89 -461 70z"/>
<path d="M30666 20009 c-88 -12 -219 -57 -293 -100 -32 -19 -94 -70 -138 -114
-67 -66 -89 -97 -127 -175 -64 -130 -82 -221 -75 -369 9 -199 70 -343 203
-475 146 -146 320 -215 542 -216 135 0 237 22 347 75 159 76 261 176 335 330
49 102 70 199 70 322 0 132 -20 220 -76 333 -39 79 -62 110 -133 180 -72 72
-102 94 -181 132 -145 71 -317 99 -474 77z m246 -180 c197 -40 362 -198 413
-395 20 -76 19 -220 -1 -298 -60 -232 -256 -387 -509 -403 -167 -10 -323 46
-436 157 -110 108 -160 232 -161 400 0 260 158 466 412 534 66 18 209 20 282
5z"/>
<path d="M35475 20010 c-186 -24 -320 -110 -383 -248 -33 -73 -37 -198 -9
-279 47 -134 160 -203 465 -283 259 -67 326 -102 357 -185 39 -100 -3 -193
-107 -244 -186 -90 -499 -42 -653 100 l-44 41 -40 -81 -41 -80 43 -34 c131
-106 298 -157 510 -157 304 1 488 117 528 333 10 51 10 82 1 127 -33 182 -140
259 -475 345 -194 50 -264 76 -316 120 -93 79 -77 227 32 300 65 44 134 60
257 59 132 -1 231 -27 332 -87 l56 -34 31 70 c17 38 31 75 31 82 0 21 -152 93
-240 114 -99 24 -240 33 -335 21z"/>
<path d="M24880 19285 l0 -715 485 0 485 0 0 85 0 85 -395 0 -395 0 0 630 0
630 -90 0 -90 0 0 -715z"/>
<path d="M26143 19513 c4 -538 4 -537 70 -673 38 -78 130 -174 204 -213 120
-64 342 -87 492 -52 201 48 335 181 393 392 21 74 22 104 26 556 l4 477 -96 0
-96 0 0 -453 c0 -423 -1 -459 -20 -533 -49 -191 -170 -279 -385 -279 -172 0
-277 53 -342 171 -59 108 -63 148 -63 647 l0 447 -96 0 -95 0 4 -487z"/>
<path d="M29420 19285 l0 -715 95 0 95 0 0 715 0 715 -95 0 -95 0 0 -715z"/>
<path d="M31950 19285 l0 -715 95 0 95 0 2 542 3 541 429 -541 429 -542 79 0
78 0 0 715 0 715 -95 0 -95 0 -2 -539 -3 -539 -428 539 -428 539 -80 0 -79 0
0 -715z"/>
<path d="M33700 19285 l0 -715 515 0 515 0 0 85 0 85 -420 0 -420 0 0 235 0
235 360 0 360 0 0 85 0 85 -360 0 -360 0 0 230 0 230 405 0 405 0 0 80 0 80
-500 0 -500 0 0 -715z"/>
</g>
</svg>
